<svg id="Layer_1" data-name="Layer 1" xmlns="http://www.w3.org/2000/svg" viewBox="0 0 510.19 570.87"><defs><style>.cls-1{fill:#a7a9ac;}.cls-2{fill:#00a651;}.cls-3,.cls-4{fill:#006838;}.cls-3{opacity:0.5;}.cls-5{fill:#2e3192;}.cls-6{fill:#fff;opacity:0.25;}.cls-7,.cls-9{fill:#603913;}.cls-8{fill:#ffe6b4;}.cls-8,.cls-9{stroke:#603913;stroke-miterlimit:10;stroke-width:10px;}</style></defs><ellipse class="cls-1" cx="255.09" cy="543.81" rx="255.09" ry="27.06"/><path class="cls-2" d="M484.46,524C477,562.49,448.37,592.86,409,609.86c-30.17-30.48-45.35-69.34-37.87-107.89s36.09-68.92,75.47-85.9C476.76,446.55,491.94,485.42,484.46,524Z" transform="translate(-63.38 -71.36)"/><path class="cls-3" d="M484.45,524C477,562.49,448.36,592.86,409,609.86l37.6-193.8C476.75,446.55,491.93,485.42,484.45,524Z" transform="translate(-63.38 -71.36)"/><rect class="cls-4" x="424.28" y="430.98" width="8.4" height="156.98" rx="2.14" transform="translate(41.5 -143.65) rotate(10.98)"/><path class="cls-4" d="M419.59,571.13h0a5.15,5.15,0,0,1-5.83-1.13l-23.58-26.57A2.73,2.73,0,0,1,391,539h0a5.16,5.16,0,0,1,5.83,1.12l23.58,26.58A2.73,2.73,0,0,1,419.59,571.13Z" transform="translate(-63.38 -71.36)"/><path class="cls-4" d="M413.76,570h0a2.73,2.73,0,0,1,.86-4.47l31.73-15.93a5.13,5.13,0,0,1,5.82,1.13h0a2.73,2.73,0,0,1-.85,4.48l-31.73,15.92A5.15,5.15,0,0,1,413.76,570Z" transform="translate(-63.38 -71.36)"/><path class="cls-4" d="M425.59,540.21h0a5.12,5.12,0,0,1-5.83-1.12l-23.58-26.57A2.73,2.73,0,0,1,397,508h0a5.12,5.12,0,0,1,5.83,1.12l23.58,26.57A2.73,2.73,0,0,1,425.59,540.21Z" transform="translate(-63.38 -71.36)"/><path class="cls-4" d="M419.76,539.09h0a2.73,2.73,0,0,1,.86-4.48l31.72-15.92a5.12,5.12,0,0,1,5.83,1.12h0a2.73,2.73,0,0,1-.86,4.48l-31.72,15.92A5.12,5.12,0,0,1,419.76,539.09Z" transform="translate(-63.38 -71.36)"/><path class="cls-4" d="M431.62,509.12h0A5.13,5.13,0,0,1,425.8,508l-23.59-26.57a2.73,2.73,0,0,1,.86-4.48h0a5.14,5.14,0,0,1,5.83,1.12l23.58,26.58A2.73,2.73,0,0,1,431.62,509.12Z" transform="translate(-63.38 -71.36)"/><path class="cls-4" d="M425.8,508h0a2.73,2.73,0,0,1,.85-4.48l31.73-15.92a5.16,5.16,0,0,1,5.83,1.12h0a2.73,2.73,0,0,1-.86,4.48l-31.73,15.93A5.13,5.13,0,0,1,425.8,508Z" transform="translate(-63.38 -71.36)"/><path class="cls-4" d="M437.19,480.41h0a5.13,5.13,0,0,1-5.83-1.12l-23.58-26.58a2.73,2.73,0,0,1,.86-4.47h0a5.12,5.12,0,0,1,5.83,1.12l23.58,26.57A2.73,2.73,0,0,1,437.19,480.41Z" transform="translate(-63.38 -71.36)"/><path class="cls-4" d="M431.36,479.29h0a2.73,2.73,0,0,1,.86-4.48L464,458.89a5.13,5.13,0,0,1,5.83,1.12h0a2.73,2.73,0,0,1-.86,4.48l-31.73,15.92A5.13,5.13,0,0,1,431.36,479.29Z" transform="translate(-63.38 -71.36)"/><circle class="cls-5" cx="71.37" cy="507.88" r="47.67"/><path class="cls-6" d="M127.88,617.27l-.32,0a38.67,38.67,0,1,1,45.86-38,1.71,1.71,0,0,1-3.42,0,35.25,35.25,0,1,0-41.8,34.64,1.71,1.71,0,0,1-.32,3.39Z" transform="translate(-63.38 -71.36)"/><circle class="cls-5" cx="148.04" cy="470.65" r="82.98"/><path class="cls-6" d="M199.46,608.2a2.71,2.71,0,0,1-.56-.05A67.31,67.31,0,1,1,278.73,542a3,3,0,1,1-6,0A61.36,61.36,0,1,0,200,602.3a3,3,0,0,1-.55,5.9Z" transform="translate(-63.38 -71.36)"/><rect class="cls-7" x="316.87" y="62.36" width="27.57" height="484.09" transform="translate(55.52 -163.39) rotate(19.26)"/><path class="cls-8" d="M319.71,195.26H174a14,14,0,0,0-13.86,15.93l55,395.35A14,14,0,0,0,229,618.61H383a14,14,0,0,0,13.86-12.07l55-395.35A14,14,0,0,0,438,195.26Z" transform="translate(-63.38 -71.36)"/><path class="cls-9" d="M448.3,217.87H163.09a24.79,24.79,0,0,1-24.79-24.78h0c0-13.69,310-24.79,310-24.79a24.79,24.79,0,0,1,24.79,24.79h0A24.79,24.79,0,0,1,448.3,217.87Z" transform="translate(-63.38 -71.36)"/><circle class="cls-9" cx="184.36" cy="236.07" r="12.61"/><circle class="cls-9" cx="300.88" cy="236.07" r="12.61"/><path class="cls-7" d="M336.45,405.62A30.51,30.51,0,0,1,321.78,402c-13.39-7.18-19.2-23.23-21.08-29.79a3.36,3.36,0,0,1,6.46-1.85c1.64,5.75,6.66,19.75,17.79,25.73,6.27,3.36,13.71,3.7,22.13,1a13.84,13.84,0,0,0,9.46-16.9,17.91,17.91,0,0,0-22.12-12.29,3.36,3.36,0,1,1-1.85-6.45A24.64,24.64,0,0,1,363,378.38a20.53,20.53,0,0,1-13.89,25.14A41.92,41.92,0,0,1,336.45,405.62Z" transform="translate(-63.38 -71.36)"/><path class="cls-7" d="M271.5,405.62A30.48,30.48,0,0,0,286.17,402c13.39-7.18,19.2-23.23,21.08-29.79a3.36,3.36,0,0,0-6.46-1.85c-1.64,5.75-6.66,19.75-17.79,25.73-6.26,3.36-13.71,3.7-22.13,1a13.84,13.84,0,0,1-9.46-16.9,17.91,17.91,0,0,1,22.12-12.29,3.36,3.36,0,0,0,1.85-6.45A24.64,24.64,0,0,0,245,378.38a20.53,20.53,0,0,0,13.89,25.14A41.92,41.92,0,0,0,271.5,405.62Z" transform="translate(-63.38 -71.36)"/><circle class="cls-7" cx="171.75" cy="453.21" r="15.57"/><circle class="cls-7" cx="198.97" cy="497.13" r="15.57"/><circle class="cls-7" cx="231.69" cy="521.64" r="15.57"/><circle class="cls-7" cx="178.19" cy="526.44" r="15.57"/><circle class="cls-7" cx="217.21" cy="465.47" r="15.57"/><circle class="cls-7" cx="297.62" cy="455.77" r="15.57"/><circle class="cls-7" cx="248.18" cy="446.07" r="15.57"/><circle class="cls-7" cx="249.72" cy="481.55" r="15.57"/><circle class="cls-7" cx="282.35" cy="490.47" r="15.57"/><circle class="cls-7" cx="269.64" cy="526.37" r="15.57"/><circle class="cls-7" cx="317.35" cy="489.58" r="15.57"/><path class="cls-2" d="M497.33,604a112.47,112.47,0,0,1-92.23,5.11,112.69,112.69,0,0,1,149.67-77.45A112.49,112.49,0,0,1,497.33,604Z" transform="translate(-63.38 -71.36)"/><path class="cls-3" d="M497.33,604a112.47,112.47,0,0,1-92.23,5.12l149.66-77.46A112.42,112.42,0,0,1,497.33,604Z" transform="translate(-63.38 -71.36)"/><rect class="cls-4" x="479.87" y="501.98" width="5.51" height="134" rx="2.14" transform="translate(702.74 -192.52) rotate(62.64)"/><rect class="cls-4" x="438.38" y="564.27" width="5.51" height="31.62" rx="2.14" transform="translate(131.88 -177.31) rotate(17.53)"/><rect class="cls-4" x="446.89" y="580.65" width="5.51" height="31.62" rx="2.14" transform="translate(1090.49 276.05) rotate(107.53)"/><rect class="cls-4" x="462.25" y="551.91" width="5.51" height="31.62" rx="2.14" transform="translate(129.27 -185.08) rotate(17.53)"/><rect class="cls-4" x="470.77" y="568.3" width="5.51" height="31.62" rx="2.14" transform="translate(1109.77 237.21) rotate(107.53)"/><rect class="cls-4" x="486.27" y="539.48" width="5.51" height="31.62" rx="2.14" transform="translate(126.64 -192.89) rotate(17.53)"/><rect class="cls-4" x="494.78" y="555.87" width="5.51" height="31.62" rx="2.14" transform="translate(1129.17 198.14) rotate(107.53)"/><rect class="cls-4" x="508.44" y="528.01" width="5.51" height="31.62" rx="2.14" transform="translate(124.21 -200.1) rotate(17.53)"/><rect class="cls-4" x="516.95" y="544.4" width="5.51" height="31.62" rx="2.14" transform="translate(1147.08 162.07) rotate(107.53)"/><circle class="cls-7" cx="308.41" cy="524.41" r="15.57"/></svg>